# xmcd CD database file
#
# Track frame offsets:
#	150
#	23587
#	38784
#	56720
#	74373
#	93101
#	111890
#	129760
#	152222
#	178524
#	206280
#	221131
#	240164
#	262515
#
# Disc length: 3962 seconds
#
# Revision: 5
# Processed by: cddbd v1.5.1PL2 Copyright (c) Steve Scherf et al.
# Submitted via: CDex 1.51
#
DISCID=ac0f780e
DTITLE=Paris Combo - Live
DYEAR=2002
DGENRE=Jazz
TTITLE0=Istanbul
TTITLE1=Ubiquité
TTITLE2=Irénée
TTITLE3=Lettre À P
TTITLE4=Escapade
TTITLE5=Le Roi De La Forêt
TTITLE6=Mais Que Fait la NASA?
TTITLE7=Sous la Lune
TTITLE8=Pas à Pas
TTITLE9=Señor
TTITLE10=Dans Les Bras d'Un Loup
TTITLE11=Attraction
TTITLE12=Living Room
TTITLE13=Moi, Mon Âme et Ma Conscience
EXTD=YEAR: 2002
EXTT0=
EXTT1=
EXTT2=
EXTT3=
EXTT4=
EXTT5=
EXTT6=
EXTT7=
EXTT8=
EXTT9=
EXTT10=
EXTT11=
EXTT12=
EXTT13=
PLAYORDER=
